HIERARCHY
ROOT Root
{
  OFFSET 0.0 0.0 0.0
  CHANNELS 6 Xposition Yposition Zposition Zrotation Yrotation Xrotation
  JOINT Hips
  {
    OFFSET 0.0 100.0 0.0
    CHANNELS 6 Xposition Yposition Zposition Zrotation Yrotation Xrotation
    JOINT Spine1
    {
      OFFSET 5.003913 -0.037094 -0.013727
      CHANNELS 3 Zrotation Yrotation Xrotation
      JOINT Spine2
      {
        OFFSET 7.125363 -1e-06 0.0
        CHANNELS 3 Zrotation Yrotation Xrotation
        JOINT Chest
        {
          OFFSET 7.594027 1e-06 0.0
          CHANNELS 3 Zrotation Yrotation Xrotation
          JOINT Neck1
          {
            OFFSET 26.313086 -0.460272 -0.181672
            CHANNELS 3 Zrotation Yrotation Xrotation
            JOINT Neck2
            {
              OFFSET 8.045911 0.0 0.0
              CHANNELS 3 Zrotation Yrotation Xrotation
              JOINT Head
              {
                OFFSET 6.432774 0.0 0.0
                CHANNELS 3 Zrotation Yrotation Xrotation
                JOINT HeadEnd
                {
                  OFFSET 16.169773 0.06451 0.00362
                  CHANNELS 3 Zrotation Yrotation Xrotation
                }
                JOINT Jaw
                {
                  OFFSET 0.108741 3.12938 0.002639
                  CHANNELS 3 Zrotation Yrotation Xrotation
                }
                JOINT LeftEye
                {
                  OFFSET 4.45173 8.166359 3.206392
                  CHANNELS 3 Zrotation Yrotation Xrotation
                }
                JOINT RightEye
                {
                  OFFSET 4.436895 8.135758 -3.222429
                  CHANNELS 3 Zrotation Yrotation Xrotation
                }
              }
            }
          }
          JOINT LeftShoulder
          {
            OFFSET 23.218927 5.195579 1.621656
            CHANNELS 3 Zrotation Yrotation Xrotation
            JOINT LeftArm
            {
              OFFSET 15.902118 2e-06 -2e-06
              CHANNELS 3 Zrotation Yrotation Xrotation
              JOINT LeftForeArm
              {
                OFFSET 28.739307 0.0 -1e-06
                CHANNELS 3 Zrotation Yrotation Xrotation
                JOINT LeftHand
                {
                  OFFSET 27.093981 -4e-06 0.0
                  CHANNELS 3 Zrotation Yrotation Xrotation
                  JOINT LeftHandThumb1
                  {
                    OFFSET 2.276781 3.380274 0.83384
                    CHANNELS 3 Zrotation Yrotation Xrotation
                    JOINT LeftHandThumb2
                    {
                      OFFSET 4.705309 -1e-06 -1e-06
                      CHANNELS 3 Zrotation Yrotation Xrotation
                      JOINT LeftHandThumb3
                      {
                        OFFSET 2.798515 0.0 3e-06
                        CHANNELS 3 Zrotation Yrotation Xrotation
                        JOINT LeftHandThumbEnd
                        {
                          OFFSET 3.180793 4e-06 -4e-06
                          CHANNELS 3 Zrotation Yrotation Xrotation
                        }
                      }
                    }
                  }
                  JOINT LeftHandIndex1
                  {
                    OFFSET 3.247786 2.352677 0.137192
                    CHANNELS 3 Zrotation Yrotation Xrotation
                    JOINT LeftHandIndex2
                    {
                      OFFSET 6.367095 1e-06 0.0
                      CHANNELS 3 Zrotation Yrotation Xrotation
                      JOINT LeftHandIndex3
                      {
                        OFFSET 3.662364 0.0 0.0
                        CHANNELS 3 Zrotation Yrotation Xrotation
                        JOINT LeftHandIndex4
                        {
                          OFFSET 2.329242 4e-06 -4e-06
                          CHANNELS 3 Zrotation Yrotation Xrotation
                          JOINT LeftHandIndexEnd
                          {
                            OFFSET 2.767823 1e-06 0.0
                            CHANNELS 3 Zrotation Yrotation Xrotation
                          }
                        }
                      }
                    }
                  }
                  JOINT LeftHandMiddle1
                  {
                    OFFSET 3.163612 0.945023 -0.406112
                    CHANNELS 3 Zrotation Yrotation Xrotation
                    JOINT LeftHandMiddle2
                    {
                      OFFSET 6.276789 3e-06 0.0
                      CHANNELS 3 Zrotation Yrotation Xrotation
                      JOINT LeftHandMiddle3
                      {
                        OFFSET 4.35652 -1e-06 4e-06
                        CHANNELS 3 Zrotation Yrotation Xrotation
                        JOINT LeftHandMiddle4
                        {
                          OFFSET 2.996877 0.0 8e-06
                          CHANNELS 3 Zrotation Yrotation Xrotation
                          JOINT LeftHandMiddleEnd
                          {
                            OFFSET 2.323256 3e-06 -4e-06
                            CHANNELS 3 Zrotation Yrotation Xrotation
                          }
                        }
                      }
                    }
                  }
                  JOINT LeftHandRing1
                  {
                    OFFSET 2.882606 -0.309162 0.107445
                    CHANNELS 3 Zrotation Yrotation Xrotation
                    JOINT LeftHandRing2
                    {
                      OFFSET 6.033198 0.0 4e-06
                      CHANNELS 3 Zrotation Yrotation Xrotation
                      JOINT LeftHandRing3
                      {
                        OFFSET 4.350578 3e-06 0.0
                        CHANNELS 3 Zrotation Yrotation Xrotation
                        JOINT LeftHandRing4
                        {
                          OFFSET 2.651321 2e-06 -7e-06
                          CHANNELS 3 Zrotation Yrotation Xrotation
                          JOINT LeftHandRingEnd
                          {
                            OFFSET 1.937663 1e-06 -4e-06
                            CHANNELS 3 Zrotation Yrotation Xrotation
                          }
                        }
                      }
                    }
                  }
                  JOINT LeftHandPinky1
                  {
                    OFFSET 2.865315 -1.525436 0.575687
                    CHANNELS 3 Zrotation Yrotation Xrotation
                    JOINT LeftHandPinky2
                    {
                      OFFSET 5.54936 1e-06 -8e-06
                      CHANNELS 3 Zrotation Yrotation Xrotation
                      JOINT LeftHandPinky3
                      {
                        OFFSET 3.070974 0.0 -4e-06
                        CHANNELS 3 Zrotation Yrotation Xrotation
                        JOINT LeftHandPinky4
                        {
                          OFFSET 1.549672 1e-06 0.0
                          CHANNELS 3 Zrotation Yrotation Xrotation
                          JOINT LeftHandPinkyEnd
                          {
                            OFFSET 1.952123 0.0 0.0
                            CHANNELS 3 Zrotation Yrotation Xrotation
                          }
                        }
                      }
                    }
                  }
                }
              }
            }
          }
          JOINT RightShoulder
          {
            OFFSET 23.161716 5.296122 -1.380114
            CHANNELS 3 Zrotation Yrotation Xrotation
            JOINT RightArm
            {
              OFFSET -16.027195 -2e-06 1.1e-05
              CHANNELS 3 Zrotation Yrotation Xrotation
              JOINT RightForeArm
              {
                OFFSET -28.736639 4e-06 2e-06
                CHANNELS 3 Zrotation Yrotation Xrotation
                JOINT RightHand
                {
                  OFFSET -27.133619 6e-06 0.0
                  CHANNELS 3 Zrotation Yrotation Xrotation
                  JOINT RightHandThumb1
                  {
                    OFFSET -2.274328 -3.351035 -0.83067
                    CHANNELS 3 Zrotation Yrotation Xrotation
                    JOINT RightHandThumb2
                    {
                      OFFSET -4.703594 -3e-06 2e-06
                      CHANNELS 3 Zrotation Yrotation Xrotation
                      JOINT RightHandThumb3
                      {
                        OFFSET -2.794935 -4e-06 -3e-06
                        CHANNELS 3 Zrotation Yrotation Xrotation
                        JOINT RightHandThumbEnd
                        {
                          OFFSET -3.183852 4e-06 1e-06
                          CHANNELS 3 Zrotation Yrotation Xrotation
                        }
                      }
                    }
                  }
                  JOINT RightHandIndex1
                  {
                    OFFSET -3.253496 -2.33755 -0.127667
                    CHANNELS 3 Zrotation Yrotation Xrotation
                    JOINT RightHandIndex2
                    {
                      OFFSET -6.344434 0.0 0.0
                      CHANNELS 3 Zrotation Yrotation Xrotation
                      JOINT RightHandIndex3
                      {
                        OFFSET -3.654871 0.0 -8e-06
                        CHANNELS 3 Zrotation Yrotation Xrotation
                        JOINT RightHandIndex4
                        {
                          OFFSET -2.327586 -1e-06 0.0
                          CHANNELS 3 Zrotation Yrotation Xrotation
                          JOINT RightHandIndexEnd
                          {
                            OFFSET -2.770001 3e-06 8e-06
                            CHANNELS 3 Zrotation Yrotation Xrotation
                          }
                        }
                      }
                    }
                  }
                  JOINT RightHandMiddle1
                  {
                    OFFSET -3.168223 -0.944764 0.411762
                    CHANNELS 3 Zrotation Yrotation Xrotation
                    JOINT RightHandMiddle2
                    {
                      OFFSET -6.266691 -1e-06 -4e-06
                      CHANNELS 3 Zrotation Yrotation Xrotation
                      JOINT RightHandMiddle3
                      {
                        OFFSET -4.348901 0.0 0.0
                        CHANNELS 3 Zrotation Yrotation Xrotation
                        JOINT RightHandMiddle4
                        {
                          OFFSET -3.00024 2e-06 -4e-06
                          CHANNELS 3 Zrotation Yrotation Xrotation
                          JOINT RightHandMiddleEnd
                          {
                            OFFSET -2.321477 -4e-06 -4e-06
                            CHANNELS 3 Zrotation Yrotation Xrotation
                          }
                        }
                      }
                    }
                  }
                  JOINT RightHandRing1
                  {
                    OFFSET -2.885654 0.293261 -0.119232
                    CHANNELS 3 Zrotation Yrotation Xrotation
                    JOINT RightHandRing2
                    {
                      OFFSET -6.032835 -1e-06 -4e-06
                      CHANNELS 3 Zrotation Yrotation Xrotation
                      JOINT RightHandRing3
                      {
                        OFFSET -4.33881 0.0 -4e-06
                        CHANNELS 3 Zrotation Yrotation Xrotation
                        JOINT RightHandRing4
                        {
                          OFFSET -2.654903 -4e-06 -4e-06
                          CHANNELS 3 Zrotation Yrotation Xrotation
                          JOINT RightHandRingEnd
                          {
                            OFFSET -1.935122 0.0 4e-06
                            CHANNELS 3 Zrotation Yrotation Xrotation
                          }
                        }
                      }
                    }
                  }
                  JOINT RightHandPinky1
                  {
                    OFFSET -2.866241 1.503904 -0.60527
                    CHANNELS 3 Zrotation Yrotation Xrotation
                    JOINT RightHandPinky2
                    {
                      OFFSET -5.553177 -2e-06 0.0
                      CHANNELS 3 Zrotation Yrotation Xrotation
                      JOINT RightHandPinky3
                      {
                        OFFSET -3.062664 -1e-06 -4e-06
                        CHANNELS 3 Zrotation Yrotation Xrotation
                        JOINT RightHandPinky4
                        {
                          OFFSET -1.546529 2e-06 4e-06
                          CHANNELS 3 Zrotation Yrotation Xrotation
                          JOINT RightHandPinkyEnd
                          {
                            OFFSET -1.952341 0.0 -4e-06
                            CHANNELS 3 Zrotation Yrotation Xrotation
                          }
                        }
                      }
                    }
                  }
                }
              }
            }
          }
        }
      }
    }
    JOINT LeftLeg
    {
      OFFSET -8.443107 2.567604 10.043214
      CHANNELS 3 Zrotation Yrotation Xrotation
      JOINT LeftShin
      {
        OFFSET 43.229198 1e-06 -1e-06
        CHANNELS 3 Zrotation Yrotation Xrotation
        JOINT LeftFoot
        {
          OFFSET 42.298611 1e-06 1e-06
          CHANNELS 3 Zrotation Yrotation Xrotation
          JOINT LeftToeBase
          {
            OFFSET 14.165858 1e-06 0.0
            CHANNELS 3 Zrotation Yrotation Xrotation
            JOINT LeftToeEnd
            {
              OFFSET 6.7141 -0.234461 0.0
              CHANNELS 3 Zrotation Yrotation Xrotation
            }
          }
        }
      }
    }
    JOINT RightLeg
    {
      OFFSET -8.303923 2.592729 -10.047278
      CHANNELS 3 Zrotation Yrotation Xrotation
      JOINT RightShin
      {
        OFFSET -43.369682 0.0 1e-06
        CHANNELS 3 Zrotation Yrotation Xrotation
        JOINT RightFoot
        {
          OFFSET -42.260784 4e-06 2e-06
          CHANNELS 3 Zrotation Yrotation Xrotation
          JOINT RightToeBase
          {
            OFFSET -14.222245 -2e-06 -1e-06
            CHANNELS 3 Zrotation Yrotation Xrotation
            JOINT RightToeEnd
            {
              OFFSET -6.660062 0.232574 -2e-06
              CHANNELS 3 Zrotation Yrotation Xrotation
            }
          }
        }
      }
    }
  }
}
MOTION
Frames: 4
Frame Time: 0.03333333333333333
0.0 0.0 0.0 0.0 -0.0 0.0 -1.320519 46.368988 6.306493 96.581688 -62.932224 85.680473 9.730578 -1.563499 -0.643113 -6.357267 -1.152733 -0.566927 16.315231 -2.033632 -2.845757 38.442158 1.092261 4.0381 -2.69154 0.239809 -1.13194 -9.185241 1.47566 -1.922246 5e-06 0.0 0.0 -0.368364 0.052734 0.010476 -0.47358 0.570296 -0.135445 -0.473579 -0.460934 0.146211 -34.698444 -66.008621 35.764259 96.703667 -13.490074 -29.087997 10.324579 -1.251968 0.006514 11.544101 84.206642 12.307482 17.636629 -26.322735 52.411198 -19.466661 -14.395596 29.410393 -0.0 -8.774819 -2e-06 15.412169 -18.043816 6.736509 -0.609776 -1.795654 -3.889327 -4.807088 -11.046811 -2.937851 4e-06 -20.976021 1e-06 -5.019971 -25.033564 -4.03188 5e-06 -2e-06 1e-06 -10.634534 -5.686972 -3.565588 10.573272 -17.922951 -3.113899 1e-06 -13.821209 1e-06 -0.501777 -31.181505 -4.027017 -10.870017 -58.843842 7.654742 -13.982714 -7.150198 -2.875042 13.772728 -8.401493 -3.218242 0.347731 -34.211555 0.771655 -0.963029 -17.73337 2.621021 -0.0 -1e-06 -0.0 -17.346422 -20.095221 -4.201783 21.757557 -1.638377 3.866429 1e-06 -6.338823 0.0 -1.69759 -22.591755 -6.194006 0.0 -5e-06 -2e-06 144.761459 -69.535606 37.019291 100.627113 -13.745719 -29.158907 6.452743 -1.008352 -0.022795 37.182129 78.401115 29.585798 22.182116 -20.375893 49.933315 -16.701811 -16.743528 28.476528 0.0 -12.690599 -2e-06 16.91773 -17.640593 2.133608 -0.105919 -1.513856 -4.275882 -5.039042 -5.612872 -2.953555 4e-06 -11.020523 -1e-06 -6.111297 -15.895332 -3.84047 1e-06 0.0 1e-06 -10.28337 -5.680288 -4.341839 11.028292 -11.302406 -2.372632 -1.384269 -14.238575 -6.32012 -0.625439 -26.924187 -3.827602 -3.927882 -49.166466 -4.176715 -13.708524 -7.363475 -3.720939 18.141146 -14.052737 -3.242672 6e-06 -18.78727 -2e-06 -0.429712 -8.456041 2.555504 0.0 -1e-06 0.0 -15.923534 -20.094481 -5.473584 30.41921 -7.190824 1.735929 2e-06 -8.162925 -0.0 -1.861904 -22.861467 -6.16794 -0.0 -4e-06 -1e-06 112.056938 -3.380413 1.619442 113.866074 0.173274 0.365182 -62.088047 12.598854 -11.285164 -11.000014 1.245345 2.688487 -0.999999 0.0 0.0 -74.790741 -5.646872 2.573758 124.345154 -0.000401 0.218283 -78.268814 7.904479 0.26889 -18.187124 0.757608 1.458389 -1.000002 -0.0 -0.0 
0.0 0.0 0.0 0.0 -0.0 0.0 -1.163476 46.383781 6.332485 96.221474 -63.079918 85.995331 9.654401 -1.49346 -0.602137 -6.438273 -1.127489 -0.53684 16.418041 -1.955658 -2.740926 38.563339 1.080886 3.898296 -2.660404 0.286998 -1.197645 -9.078401 1.432571 -1.989948 5e-06 0.0 0.0 -0.368016 0.013639 -0.012077 -0.457596 0.540884 -0.162611 -0.46506 -0.507578 0.127417 -34.645115 -66.051216 35.974831 97.052505 -13.210065 -29.482904 9.899991 -1.216907 0.001375 16.829924 84.132378 17.229244 17.636621 -26.322731 52.411182 -19.466656 -14.3956 29.410385 -1e-06 -8.774821 -1e-06 15.335174 -18.084103 6.791298 -0.609775 -1.795653 -3.889328 -4.807086 -11.046809 -2.93785 5e-06 -20.976015 2e-06 -5.019969 -25.033554 -4.031878 5e-06 -1e-06 -0.0 -10.634531 -5.686968 -3.565587 10.573271 -17.922951 -3.113901 3e-06 -13.821204 -0.0 -0.501776 -31.181498 -4.027015 -10.79822 -58.947266 7.617684 -13.982711 -7.150195 -2.875041 13.772728 -8.401493 -3.218242 0.347734 -34.211544 0.771656 -0.963029 -17.733368 2.621021 0.0 0.0 -0.0 -17.346409 -20.095211 -4.201782 21.757555 -1.638374 3.866426 2e-06 -6.338824 1e-06 -1.697589 -22.591743 -6.194005 0.0 -6e-06 -2e-06 144.584946 -69.408791 37.439339 100.57888 -13.51671 -29.28474 6.496463 -0.869382 -0.014811 37.604889 78.162109 29.869247 22.182102 -20.375891 49.933315 -16.701813 -16.743528 28.476528 1e-06 -12.690598 1e-06 16.872129 -17.575779 2.160969 -0.105919 -1.513856 -4.275882 -5.039039 -5.612869 -2.953555 4e-06 -11.02052 -2e-06 -6.111296 -15.895328 -3.84047 1e-06 -0.0 1e-06 -10.283368 -5.680287 -4.341838 11.028292 -11.302402 -2.372633 -1.384267 -14.238577 -6.32012 -0.625437 -26.924185 -3.827601 -3.924159 -49.214581 -4.086472 -13.708521 -7.363473 -3.720938 18.141146 -14.052736 -3.242675 6e-06 -18.787268 -3e-06 -0.429712 -8.456039 2.555503 0.0 1e-06 -0.0 -15.923528 -20.094479 -5.473586 30.419207 -7.190823 1.735923 2e-06 -8.162924 -0.0 -1.861901 -22.861467 -6.167943 0.0 -4e-06 -2e-06 111.87487 -3.312328 1.665151 113.875259 0.164475 0.387744 -61.95953 12.458787 -11.148107 -10.98851 1.284968 2.664139 -0.999996 0.0 -1e-06 -74.89373 -5.674122 2.551237 124.248871 -0.016147 0.1895 -78.151405 7.934014 0.331342 -17.743361 0.74751 1.471742 -1.000002 -0.0 0.0 
0.0 0.0 0.0 0.0 -0.0 0.0 -1.007089 46.404953 6.316694 96.069382 -63.167099 86.162529 9.562284 -1.433016 -0.548613 -6.512291 -1.099545 -0.483611 16.54347 -1.912981 -2.678507 38.710178 1.112249 3.752886 -2.647092 0.284126 -1.242581 -9.124372 1.345762 -2.104276 4e-06 -0.0 0.0 -0.367004 -0.014942 -0.025929 -0.507809 0.517013 -0.19219 -0.509256 -0.539948 0.126998 -34.222969 -66.039978 35.741768 97.228737 -13.048457 -29.520761 9.739189 -1.178052 0.00781 17.336432 84.009918 17.465729 17.636627 -26.322733 52.411194 -19.466663 -14.395597 29.410395 -1e-06 -8.774822 -2e-06 15.354081 -18.073349 6.756536 -0.609777 -1.795655 -3.889328 -4.80709 -11.046811 -2.937851 4e-06 -20.976019 0.0 -5.019971 -25.033562 -4.031882 5e-06 -1e-06 2e-06 -10.634535 -5.68697 -3.565587 10.573275 -17.922955 -3.113901 2e-06 -13.821211 1e-06 -0.501776 -31.181507 -4.027017 -10.644842 -58.996117 7.502042 -13.982714 -7.1502 -2.875041 13.772731 -8.401492 -3.218242 0.347733 -34.211555 0.771653 -0.963028 -17.73337 2.62102 0.0 -1e-06 -1e-06 -17.346422 -20.095222 -4.201779 21.757561 -1.638377 3.866428 1e-06 -6.338823 0.0 -1.697589 -22.591745 -6.194007 -0.0 -6e-06 -0.0 144.650558 -69.348557 37.576401 100.318542 -13.345125 -29.343784 6.653682 -0.824221 -0.012186 38.498947 78.110313 31.045519 22.182117 -20.375889 49.933304 -16.701809 -16.743526 28.476528 1e-06 -12.6906 -1e-06 16.827293 -17.480255 2.199553 -0.10592 -1.513855 -4.27588 -5.039041 -5.612872 -2.953557 4e-06 -11.02052 -2e-06 -6.111297 -15.89533 -3.840472 -1e-06 -2e-06 -0.0 -10.283369 -5.680288 -4.341838 11.028291 -11.302404 -2.372632 -1.384269 -14.238577 -6.32012 -0.62544 -26.924187 -3.8276 -3.899355 -49.187756 -4.013649 -13.708527 -7.363474 -3.720939 18.141146 -14.052736 -3.242673 5e-06 -18.78727 -2e-06 -0.429712 -8.456041 2.555503 -0.0 0.0 -0.0 -15.923534 -20.094482 -5.473582 30.41921 -7.19082 1.735927 2e-06 -8.162925 -1e-06 -1.861904 -22.861465 -6.167941 -1e-06 -3e-06 -1e-06 111.74131 -3.178348 1.643631 113.962303 0.180597 0.40696 -62.242451 12.2104 -11.094753 -11.155805 1.299492 2.65376 -0.999999 0.0 0.0 -75.00975 -5.768543 2.665603 124.228821 -0.014941 0.183901 -78.134315 8.045218 0.282846 -17.582073 0.733489 1.484463 -1.000002 -0.0 -0.0 
0.0 0.0 0.0 0.0 -0.0 0.0 -0.876852 46.407135 6.22553 96.005424 -63.266445 86.277954 9.47456 -1.379046 -0.502288 -6.56955 -1.077643 -0.44169 16.610146 -1.85427 -2.644028 38.808067 1.107563 3.624264 -2.640493 0.237812 -1.320199 -9.228463 1.317239 -2.182067 5e-06 0.0 -0.0 -0.366031 -0.037579 -0.034762 -0.564456 0.496831 -0.216476 -0.551748 -0.565547 0.131815 -33.842243 -66.005447 35.525204 97.352562 -12.925877 -29.61511 9.708264 -1.161886 0.008302 18.032974 83.914398 18.229366 17.636637 -26.322731 52.411182 -19.46666 -14.395596 29.410385 -0.0 -8.774821 -3e-06 15.368401 -18.041811 6.720073 -0.609777 -1.795654 -3.889327 -4.807091 -11.046809 -2.937851 4e-06 -20.976017 1e-06 -5.019972 -25.03356 -4.03188 5e-06 -1e-06 2e-06 -10.634535 -5.686971 -3.565588 10.573272 -17.922951 -3.113898 1e-06 -13.821206 2e-06 -0.501778 -31.181498 -4.027017 -10.548161 -59.01506 7.386382 -13.982714 -7.150198 -2.875042 13.77273 -8.40149 -3.21824 0.347733 -34.211552 0.771656 -0.963028 -17.733368 2.62102 -0.0 -0.0 -0.0 -17.346422 -20.095217 -4.201782 21.757563 -1.638375 3.866429 1e-06 -6.338823 1e-06 -1.697591 -22.591747 -6.194006 0.0 -7e-06 -2e-06 144.798172 -69.228058 37.518856 100.0616 -13.311986 -29.398542 6.897091 -0.788942 -0.014014 39.27895 78.207359 32.160862 22.182112 -20.375887 49.933308 -16.701811 -16.743525 28.476526 -3e-06 -12.690598 -1e-06 16.795992 -17.418617 2.239961 -0.10592 -1.513856 -4.27588 -5.039039 -5.61287 -2.953555 4e-06 -11.020521 -2e-06 -6.111297 -15.89533 -3.840469 0.0 -1e-06 -0.0 -10.283367 -5.680288 -4.341837 11.02829 -11.302402 -2.372632 -1.384268 -14.238575 -6.32012 -0.625438 -26.924183 -3.8276 -3.900774 -49.197544 -3.939592 -13.708521 -7.363474 -3.720938 18.141144 -14.052734 -3.242673 6e-06 -18.78727 -2e-06 -0.429712 -8.456041 2.555503 0.0 1e-06 -0.0 -15.923534 -20.094479 -5.473582 30.419205 -7.190824 1.735924 2e-06 -8.162925 -2e-06 -1.861901 -22.861464 -6.16794 -0.0 -2e-06 -1e-06 111.516624 -3.00017 1.65023 114.180519 0.20412 0.416157 -62.787239 12.000286 -11.092504 -11.48037 1.307544 2.643771 -0.999998 -0.0 -1e-06 -75.243668 -5.866009 2.854637 124.329201 0.024035 0.183463 -78.160065 8.113555 0.163547 -17.672092 0.723662 1.494429 -1.0 -0.0 0.0 
